<svg id="visual" viewBox="0 0 1920 1080" width="1920" height="1080" xmlns="http://www.w3.org/2000/svg" xmlns:xlink="http://www.w3.org/1999/xlink" version="1.1"><rect x="0" y="0" width="1920" height="1080" fill="#00005A"></rect><defs><linearGradient id="grad1_0" x1="43.8%" y1="0%" x2="100%" y2="100%"><stop offset="14.444444444444446%" stop-color="#00005a" stop-opacity="1"></stop><stop offset="85.55555555555554%" stop-color="#00005a" stop-opacity="1"></stop></linearGradient></defs><defs><linearGradient id="grad2_0" x1="0%" y1="0%" x2="56.3%" y2="100%"><stop offset="14.444444444444446%" stop-color="#00005a" stop-opacity="1"></stop><stop offset="85.55555555555554%" stop-color="#00005a" stop-opacity="1"></stop></linearGradient></defs><g transform="translate(1920, 0)"><path d="M0 756C-56.3 747.1 -112.5 738.2 -164.4 720.5C-216.4 702.7 -264 676.2 -313.7 651.4C-363.4 626.6 -415.3 603.7 -452 566.8C-488.8 530 -510.5 479.3 -552 440.2C-593.4 401.1 -654.7 373.6 -681.1 328C-707.6 282.4 -699.2 218.8 -705.8 161.1C-712.5 103.4 -734.3 51.7 -756 0L0 0Z" fill="#849B17"></path></g><g transform="translate(0, 1080)"><path d="M0 -756C49.9 -724.6 99.9 -693.3 156.7 -686.3C213.4 -679.4 277 -696.9 328 -681.1C379 -665.4 417.5 -616.4 457.6 -573.9C497.8 -531.3 539.6 -495.2 562.9 -448.9C586.3 -402.6 591.1 -346 621.7 -299.4C652.2 -252.7 708.4 -216 735.1 -167.8C761.8 -119.5 758.9 -59.8 756 0L0 0Z" fill="#849B17"></path></g></svg>