<svg width="40" height="40" viewBox="0 0 40 40" fill="none" xmlns="http://www.w3.org/2000/svg">
<path d="M28.3334 3.33334V8.33334M11.6667 3.33334V8.33334" stroke="#849B17" stroke-width="1.5" stroke-linecap="round" stroke-linejoin="round"/>
<path d="M21.6667 5.83334H18.3333C12.0479 5.83334 8.90525 5.83334 6.95262 7.78595C5 9.73859 5 12.8813 5 19.1667V23.3333C5 29.6187 5 32.7615 6.95262 34.714C8.90525 36.6667 12.0479 36.6667 18.3333 36.6667H21.6667C27.952 36.6667 31.0948 36.6667 33.0473 34.714C35 32.7615 35 29.6187 35 23.3333V19.1667C35 12.8813 35 9.73859 33.0473 7.78595C31.0948 5.83334 27.952 5.83334 21.6667 5.83334Z" stroke="#849B17" stroke-width="1.5" stroke-linecap="round" stroke-linejoin="round"/>
<path d="M5.83331 14.1667H34.1666" stroke="#849B17" stroke-width="1.5" stroke-linecap="round" stroke-linejoin="round"/>
<path d="M15 25.8333C15 25.8333 17.5 26.6667 18.3333 29.1667C18.3333 29.1667 21.9608 22.5 26.6667 20.8333" stroke="#849B17" stroke-width="1.5" stroke-linecap="round" stroke-linejoin="round"/>
</svg>
