<svg width="40" height="40" viewBox="0 0 40 40" fill="none" xmlns="http://www.w3.org/2000/svg">
<path d="M30 3.33333V6.66667M10 3.33333V6.66667" stroke="#849B17" stroke-width="1.5" stroke-linecap="round" stroke-linejoin="round"/>
<path d="M19.9925 21.6667H20.0075M19.9925 28.3333H20.0075M26.6516 21.6667H26.6666M13.3333 21.6667H13.3483M13.3333 28.3333H13.3483" stroke="#849B17" stroke-width="2" stroke-linecap="round" stroke-linejoin="round"/>
<path d="M5.83331 13.3333H34.1666" stroke="#849B17" stroke-width="1.5" stroke-linecap="round" stroke-linejoin="round"/>
<path d="M4.16669 20.4053C4.16669 13.1432 4.16669 9.51213 6.25355 7.25607C8.34042 5 11.6992 5 18.4167 5H21.5834C28.3009 5 31.6597 5 33.7465 7.25607C35.8334 9.51213 35.8334 13.1432 35.8334 20.4053V21.2613C35.8334 28.5235 35.8334 32.1545 33.7465 34.4107C31.6597 36.6667 28.3009 36.6667 21.5834 36.6667H18.4167C11.6992 36.6667 8.34042 36.6667 6.25355 34.4107C4.16669 32.1545 4.16669 28.5235 4.16669 21.2613V20.4053Z" stroke="#849B17" stroke-width="1.5" stroke-linecap="round" stroke-linejoin="round"/>
<path d="M5 13.3333H35" stroke="#849B17" stroke-width="1.5" stroke-linecap="round" stroke-linejoin="round"/>
</svg>
