<svg width="30" height="30" viewBox="0 0 30 30" fill="none" xmlns="http://www.w3.org/2000/svg">
<path d="M26.8096 10.25C26.875 11.5627 26.875 13.1243 26.875 15C26.875 20.5979 26.875 23.3969 25.136 25.136C23.3969 26.875 20.5979 26.875 15 26.875C9.40207 26.875 6.60311 26.875 4.86405 25.136C3.125 23.3969 3.125 20.5979 3.125 15C3.125 9.40207 3.125 6.60311 4.86405 4.86405C6.60311 3.125 9.40207 3.125 15 3.125C16.3399 3.125 17.5195 3.125 18.5625 3.14885" stroke="#849B17" stroke-width="1.5" stroke-linecap="round"/>
<path d="M10 14.375C10 14.375 11.875 14.375 14.375 18.75C14.375 18.75 20.6985 7.29166 26.875 5" stroke="#849B17" stroke-width="1.5" stroke-linecap="round" stroke-linejoin="round"/>
</svg>
