<svg width="40" height="40" viewBox="0 0 40 40" fill="none" xmlns="http://www.w3.org/2000/svg">
<path d="M3.33333 31.6667V12.5817C3.33333 10.1753 3.33333 8.97203 3.73887 8.02745C4.2445 6.84975 5.18308 5.91117 6.36078 5.40553C7.30537 5 8.49675 5 10.915 5H11.7385C12.747 5 13.7012 5.45657 14.334 6.24182L17.3625 10M17.3625 10H26.6667C29.0002 10 30.167 10 31.0583 10.4541C31.8423 10.8536 32.4797 11.491 32.8792 12.275C33.3333 13.1663 33.3333 14.3331 33.3333 16.6667V18.3333M17.3625 10H11.6667" stroke="#849B17" stroke-width="1.5" stroke-linecap="round" stroke-linejoin="round"/>
<path d="M5.26337 25.8574L5.76072 24.6195C6.98382 21.5749 7.59539 20.0527 8.87067 19.193C10.146 18.3334 11.7926 18.3334 15.086 18.3334H28.5198C33.0007 18.3334 35.241 18.3334 36.237 19.7979C37.2328 21.2625 36.4008 23.3337 34.7367 27.476L34.2393 28.7139C33.0162 31.7585 32.4047 33.2807 31.1293 34.1404C29.854 35 28.2073 35 24.914 35H11.4802C6.99935 35 4.75892 35 3.76303 33.5355C2.76715 32.0709 3.59922 29.9997 5.26337 25.8574Z" stroke="#849B17" stroke-width="1.5" stroke-linejoin="round"/>
</svg>
