<svg width="24" height="24" viewBox="0 0 24 24" fill="none" xmlns="http://www.w3.org/2000/svg">
<path d="M6 18.4V16.6C6 14.903 6 14.0544 5.63389 13.5272C5.26776 13 4.67851 13 3.5 13C2.32149 13 1.73224 13 1.36611 13.5272C1 14.0544 1 14.903 1 16.6V18.4C1 20.097 1 20.9456 1.36611 21.4728C1.73224 22 2.32149 22 3.5 22C4.67851 22 5.26776 22 5.63389 21.4728C6 20.9456 6 20.097 6 18.4Z" stroke="#849B17" stroke-width="1.5" stroke-linecap="round" stroke-linejoin="round"/>
<path d="M14 18.4444V9.55556C14 7.87947 14 7.04142 13.6339 6.52071C13.2677 6 12.6785 6 11.5 6C10.3215 6 9.73225 6 9.36613 6.52071C9 7.04142 9 7.87947 9 9.55556V18.4444C9 20.1205 9 20.9586 9.36613 21.4793C9.73225 22 10.3215 22 11.5 22C12.6785 22 13.2677 22 13.6339 21.4793C14 20.9586 14 20.1205 14 18.4444Z" stroke="#849B17" stroke-width="1.5" stroke-linecap="round" stroke-linejoin="round"/>
<path d="M22 18.7692V4.23077C22 2.70777 22 1.94628 21.6339 1.47313C21.2677 1 20.6785 1 19.5 1C18.3215 1 17.7323 1 17.3661 1.47313C17 1.94628 17 2.70777 17 4.23077V18.7692C17 20.2922 17 21.0537 17.3661 21.5269C17.7323 22 18.3215 22 19.5 22C20.6785 22 21.2677 22 21.6339 21.5269C22 21.0537 22 20.2922 22 18.7692Z" stroke="#849B17" stroke-width="1.5" stroke-linecap="round" stroke-linejoin="round"/>
</svg>
