<svg width="24" height="24" viewBox="0 0 24 24" fill="none" xmlns="http://www.w3.org/2000/svg">
<path d="M23 23H18" stroke="#849B17" stroke-width="1.5" stroke-linecap="round" stroke-linejoin="round"/>
<path d="M15 23H10" stroke="#849B17" stroke-width="1.5" stroke-linecap="round" stroke-linejoin="round"/>
<path d="M7 17.8V15.2C7 12.7487 7 11.5231 6.56066 10.7615C6.12131 10 5.41421 10 4 10C2.58579 10 1.87869 10 1.43934 10.7615C1 11.5231 1 12.7487 1 15.2V17.8C1 20.2513 1 21.4769 1.43934 22.2385C1.87869 23 2.58579 23 4 23C5.41421 23 6.12131 23 6.56066 22.2385C7 21.4769 7 20.2513 7 17.8Z" stroke="#849B17" stroke-width="1.5" stroke-linecap="round" stroke-linejoin="round"/>
</svg>
