<svg width="24" height="24" viewBox="0 0 24 24" fill="none" xmlns="http://www.w3.org/2000/svg">
<path d="M23 23H19" stroke="#849B17" stroke-width="1.5" stroke-linecap="round" stroke-linejoin="round"/>
<path d="M6 17.8V15.2C6 12.7487 6 11.5231 5.63389 10.7615C5.26776 10 4.67851 10 3.5 10C2.32149 10 1.73224 10 1.36611 10.7615C1 11.5231 1 12.7487 1 15.2V17.8C1 20.2513 1 21.4769 1.36611 22.2385C1.73224 23 2.32149 23 3.5 23C4.67851 23 5.26776 23 5.63389 22.2385C6 21.4769 6 20.2513 6 17.8Z" stroke="#849B17" stroke-width="1.5" stroke-linecap="round" stroke-linejoin="round"/>
<path d="M15 18.3333V6.66667C15 4.4668 15 3.36687 14.5606 2.68343C14.1213 2 13.4142 2 12 2C10.5858 2 9.8787 2 9.43935 2.68343C9 3.36687 9 4.4668 9 6.66667V18.3333C9 20.5332 9 21.6331 9.43935 22.3166C9.8787 23 10.5858 23 12 23C13.4142 23 14.1213 23 14.5606 22.3166C15 21.6331 15 20.5332 15 18.3333Z" stroke="#849B17" stroke-width="1.5" stroke-linecap="round" stroke-linejoin="round"/>
</svg>
