<svg width="40" height="40" viewBox="0 0 40 40" fill="none" xmlns="http://www.w3.org/2000/svg">
<path d="M6.66667 11.6666V35" stroke="#849B17" stroke-width="1.5" stroke-linecap="round" stroke-linejoin="round"/>
<path d="M19.596 6.51442C14.0873 3.70828 9.75208 5.3524 7.59043 7.032C7.2008 7.33475 7.00597 7.48612 6.83632 7.83278C6.66667 8.17945 6.66667 8.5023 6.66667 9.148V24.5532C8.28283 22.7237 13.1313 19.888 19.596 23.181C25.3733 26.124 30.2902 24.904 32.6162 23.6325C32.9388 23.4562 33.1002 23.3678 33.2168 23.1713C33.3333 22.9748 33.3333 22.7615 33.3333 22.3348V9.78982C33.3333 8.40897 33.3333 7.71855 33.0045 7.46843C32.6755 7.21832 31.906 7.43167 30.367 7.8584C27.7333 8.58865 23.9038 8.70887 19.596 6.51442Z" stroke="#849B17" stroke-width="1.5" stroke-linecap="round" stroke-linejoin="round"/>
</svg>
