<svg width="40" height="40" viewBox="0 0 40 40" fill="none" xmlns="http://www.w3.org/2000/svg">
<path d="M3.33331 20C3.33331 13.7504 3.33331 10.6257 4.92483 8.43512C5.43883 7.72767 6.06098 7.10552 6.76843 6.59152C8.95898 5 12.0838 5 18.3333 5H21.6666C27.9161 5 31.041 5 33.2315 6.59152C33.939 7.10552 34.5611 7.72767 35.0751 8.43512C36.6666 10.6257 36.6666 13.7504 36.6666 20C36.6666 26.2495 36.6666 29.3743 35.0751 31.5648C34.5611 32.2723 33.939 32.8945 33.2315 33.4085C31.041 35 27.9161 35 21.6666 35H18.3333C12.0838 35 8.95898 35 6.76843 33.4085C6.06098 32.8945 5.43883 32.2723 4.92483 31.5648C3.33331 29.3743 3.33331 26.2495 3.33331 20Z" stroke="#00003F" stroke-width="2" stroke-linejoin="round"/>
<path d="M15.8333 5.83334V34.1667" stroke="#00003F" stroke-width="2" stroke-linejoin="round"/>
<path d="M8.33331 11.6667C8.33331 11.6667 9.857 11.6667 10.8333 11.6667" stroke="#00003F" stroke-width="2" stroke-linecap="round" stroke-linejoin="round"/>
<path d="M8.33331 18.3333H10.8333" stroke="#00003F" stroke-width="2" stroke-linecap="round" stroke-linejoin="round"/>
<path d="M28.3333 16.6667L26.2892 18.4287C25.4297 19.1693 25 19.5398 25 20C25 20.4602 25.4297 20.8307 26.2892 21.5713L28.3333 23.3333" stroke="#00003F" stroke-width="2" stroke-linecap="round" stroke-linejoin="round"/>
</svg>
