<svg width="40" height="40" viewBox="0 0 40 40" fill="none" xmlns="http://www.w3.org/2000/svg">
<path d="M36.6667 20C36.6667 13.7504 36.6667 10.6257 35.0752 8.43512C34.5612 7.72767 33.939 7.10552 33.2315 6.59152C31.041 5 27.9162 5 21.6667 5H18.3333C12.0838 5 8.95901 5 6.76846 6.59152C6.06101 7.10552 5.43886 7.72767 4.92486 8.43512C3.33334 10.6257 3.33334 13.7504 3.33334 20C3.33334 26.2495 3.33334 29.3743 4.92486 31.5648C5.43886 32.2723 6.06101 32.8945 6.76846 33.4085C8.95901 35 12.0838 35 18.3333 35H21.6667C27.9162 35 31.041 35 33.2315 33.4085C33.939 32.8945 34.5612 32.2723 35.0752 31.5648C36.6667 29.3743 36.6667 26.2495 36.6667 20Z" stroke="#00003F" stroke-width="2" stroke-linejoin="round"/>
<path d="M24.1667 5.83331V34.1666" stroke="#00003F" stroke-width="2" stroke-linejoin="round"/>
<path d="M31.6667 11.6667H29.1667" stroke="#00003F" stroke-width="2" stroke-linecap="round" stroke-linejoin="round"/>
<path d="M31.6667 18.3333H29.1667" stroke="#00003F" stroke-width="2" stroke-linecap="round" stroke-linejoin="round"/>
<path d="M13.3333 16.6667L15.3776 18.4287C16.237 19.1694 16.6667 19.5399 16.6667 20C16.6667 20.4602 16.237 20.8307 15.3776 21.5714L13.3333 23.3334" stroke="#00003F" stroke-width="2" stroke-linecap="round" stroke-linejoin="round"/>
</svg>
