<svg width="30" height="30" viewBox="0 0 30 30" fill="none" xmlns="http://www.w3.org/2000/svg">
<path d="M2.5 15C2.5 10.3128 2.5 7.96925 3.69364 6.32634C4.07914 5.79575 4.54575 5.32914 5.07634 4.94364C6.71925 3.75 9.06284 3.75 13.75 3.75H16.25C20.9371 3.75 23.2808 3.75 24.9236 4.94364C25.4542 5.32914 25.9209 5.79575 26.3064 6.32634C27.5 7.96925 27.5 10.3128 27.5 15C27.5 19.6871 27.5 22.0308 26.3064 23.6736C25.9209 24.2042 25.4542 24.6709 24.9236 25.0564C23.2808 26.25 20.9371 26.25 16.25 26.25H13.75C9.06284 26.25 6.71925 26.25 5.07634 25.0564C4.54575 24.6709 4.07914 24.2042 3.69364 23.6736C2.5 22.0308 2.5 19.6871 2.5 15Z" stroke="white" stroke-width="1.5" stroke-linejoin="round"/>
<path d="M11.875 4.375V25.625" stroke="white" stroke-width="1.5" stroke-linejoin="round"/>
<path d="M6.25 8.75C6.25 8.75 7.39276 8.75 8.125 8.75" stroke="white" stroke-width="1.5" stroke-linecap="round" stroke-linejoin="round"/>
<path d="M6.25 13.75H8.125" stroke="white" stroke-width="1.5" stroke-linecap="round" stroke-linejoin="round"/>
<path d="M21.25 12.5L19.7169 13.8215C19.0723 14.377 18.75 14.6549 18.75 15C18.75 15.3451 19.0723 15.623 19.7169 16.1785L21.25 17.5" stroke="white" stroke-width="1.5" stroke-linecap="round" stroke-linejoin="round"/>
</svg>
