<svg width="24" height="24" viewBox="0 0 24 24" fill="none" xmlns="http://www.w3.org/2000/svg">
<path d="M12 16C12.0035 16 12.009 16 12.009 16" stroke="#849B17" stroke-width="1.5" stroke-linecap="round" stroke-linejoin="round"/>
<path d="M12 13V8" stroke="#849B17" stroke-width="1.5" stroke-linecap="round" stroke-linejoin="round"/>
<path d="M4.65388 9.31706C7.30893 4.37177 8.63644 1.89911 10.4581 1.26262C11.4602 0.91246 12.5398 0.91246 13.5419 1.26262C15.3636 1.89911 16.691 4.37177 19.3461 9.31706C22.0012 14.2623 23.3287 16.735 22.9305 18.7497C22.7113 19.8582 22.1716 20.8635 21.3885 21.6218C19.9651 23 17.3101 23 12 23C6.68991 23 4.03487 23 2.61146 21.6218C1.82839 20.8635 1.28863 19.8582 1.06955 18.7497C0.671313 16.735 1.99884 14.2623 4.65388 9.31706Z" stroke="#849B17" stroke-width="1.5"/>
</svg>
